# xmcd
#
# Track frame offsets: 
#        150
#        10950
#        28965
#        49515
#        65148
#        76253
#        99423
#        115377
#        136360
#        151660
#        166235
#        188082
#        208062
#        220770
#
# Disc length: 3236 seconds
#
# Revision: 0
# Processed by: cddbd v1.5.2PL0 Copyright (c) Steve Scherf et al.
# Submitted via: ExactAudioCopy v0.99pb3
#
DISCID=bb0ca20e
DTITLE=J.J. Milteau - Soul Conversation
DYEAR=2008
DGENRE=Blues
TTITLE0=Wooosh
TTITLE1=Rock n´Roll Will Never Die
TTITLE2=Is This The Way
TTITLE3=It´s So Real
TTITLE4=Hole In The Wall (Burgers n´Blues...)
TTITLE5=You Can´t Always Get What You Want
TTITLE6=You Never Know
TTITLE7=Summer Moments
TTITLE8=Tchoupitoula
TTITLE9=People Get Ready
TTITLE10=Long Time Gone
TTITLE11=Down In The Mississippi
TTITLE12=Beaumont Lafayette
TTITLE13=Will You Come
EXTD=
EXTT0=
EXTT1=
EXTT2=
EXTT3=
EXTT4=
EXTT5=
EXTT6=
EXTT7=
EXTT8=
EXTT9=
EXTT10=
EXTT11=
EXTT12=
EXTT13=
PLAYORDER=
